<svg id="logo-winroll" xmlns="http://www.w3.org/2000/svg" viewBox="0 0 139 26">
	<defs>
			<style>.cls-1{fill:#0db682}</style>
	</defs>
	
	<path id="W" class="cls-1" d="M22.83 25l-5.88-13.42L11.43 25 1.23 1.74h3.84l6.27 14.67L15 7.17l1.8-4.59 2 4.53 4 9.3 5.79-14.67h3.81z"/>
	<path id="I" class="cls-1" d="M36 24V1.74h3.48V24z"/>
	<path id="N" class="cls-1" d="M47.55 9.69V24h-3.48V.69L58 16V1.74h3.51V25z"/>
	<path id="R" class="cls-1" d="M81.78 24h-3.93l-5.61-7.53h-2.55V24h-3.48V1.74h6.6A7.07 7.07 0 0 1 78.36 4a7.55 7.55 0 0 1 1.8 5.16 7.53 7.53 0 0 1-1.8 5.13A6.23 6.23 0 0 1 75.78 16zm-9-10.65a4.09 4.09 0 0 0 3.22-1.2 4.42 4.42 0 0 0 1-3 4.45 4.45 0 0 0-1-3.06 4.08 4.08 0 0 0-3.21-1.17h-3.1v8.46z"/>
	<path id="O" class="cls-1" d="M90.12 23.13a11.12 11.12 0 0 1-6.81-10.26 11.37 11.37 0 0 1 .87-4.35A11.73 11.73 0 0 1 86.58 5a11 11 0 0 1 3.54-2.37 11.11 11.11 0 0 1 4.32-.87 11.38 11.38 0 0 1 4.35.87A11.65 11.65 0 0 1 102.33 5a11.63 11.63 0 0 1 2.37 3.54 11.37 11.37 0 0 1 .87 4.35 11.11 11.11 0 0 1-.87 4.32 11 11 0 0 1-2.37 3.54 11.75 11.75 0 0 1-3.54 2.4 11.37 11.37 0 0 1-4.35.87 11.1 11.1 0 0 1-4.32-.89zM89 7.47a7.6 7.6 0 1 0 5.4-2.25A7.61 7.61 0 0 0 89 7.47z"/>
	<path id="L" class="cls-1" d="M122.28 24H109.5V1.74h3.5v19.11h9.3z"/>
	<path id="L-2" data-name="L" class="cls-1" d="M137.61 24h-12.78V1.74h3.48v19.11h9.3z"/>
</svg>